# xmcd
#
# Track frame offsets:
#	150
#	15687
#	29735
#	47728
#	63538
#	77663
#	95541
#	112575
#	123909
#	140003
#	151315
#	164330
#	179617
#	195628
#	208448
#	221919
#	237435
#	247502
#	262318
#	275721
#
# Disc length: 3883 seconds
#
# Revision: 0
# Processed by: cddbd v1.5.2PL0 Copyright (c) Steve Scherf et al.
# Submitted via: EZCDAudioConverter 5.4.0.1
#
DISCID=2e0f2914
DTITLE=Jamppa Tuominen
DYEAR=1900
DGENRE=
TTITLE0=El‰m‰ni Parhainta Aikaa
TTITLE1=Kev‰‰n ensi kukkanen
TTITLE2=Kerro Kuiskaten Tunteesi
TTITLE3=Koskaan Rakkaus Kuole Ei
TTITLE4=Musiikista muistot syntyv‰t nuo
TTITLE5=Viel‰ nousee se p‰iv‰
TTITLE6=Rakastunut
TTITLE7=Jos Laulut Totta Oisivat
TTITLE8=Tulenliekit
TTITLE9=Muistojen Puisto
TTITLE10=Siit‰ Onkin Aikaa
TTITLE11=Silloin tunnen kaiken kauniin
TTITLE12=Mit‰ Oisin Ilman Sua
TTITLE13=Suureen Suureen Maailmaan
TTITLE14=Enemm‰n Kuin Nainen
TTITLE15=Taas kutsuu tie
TTITLE16=Saat Postikortin
TTITLE17=Sinun rakkautesi riitt‰‰
TTITLE18=Pohjalta ponnistin
TTITLE19=Voima Rakkauden
EXTD=
EXTT0=
EXTT1=
EXTT2=
EXTT3=
EXTT4=
EXTT5=
EXTT6=
EXTT7=
EXTT8=
EXTT9=
EXTT10=
EXTT11=
EXTT12=
EXTT13=
EXTT14=
EXTT15=
EXTT16=
EXTT17=
EXTT18=
EXTT19=
PLAYORDER=
